<svg id="Layer_1" enable-background="new 0 0 511.905 511.905" height="512" viewBox="0 0 511.905 511.905" width="512" xmlns="http://www.w3.org/2000/svg"><path d="m511.905 233.323c0-45.859-31.508-85.404-75-96.419-4.724-29.355-19.046-56.302-41.043-76.831-24.983-23.315-57.571-36.155-91.761-36.155-27.36 0-53.696 8.169-76.16 23.625-18.748 12.899-33.77 30.11-43.925 50.212-2.298-.134-4.599-.202-6.893-.202-50.509 0-94.743 31.898-111.062 78.786-16.455 2.654-31.601 10.447-43.486 22.538-14.557 14.812-22.575 34.408-22.575 55.18 0 43.424 35.328 78.751 78.751 78.751h22.132c-3.707 6.39-6.497 13.279-8.269 20.486-31.407 5.97-55.227 33.63-55.227 66.75 0 37.463 30.479 67.942 67.942 67.942h301.269c37.463 0 67.942-30.479 67.942-67.942 0-33.119-23.82-60.779-55.227-66.749-1.771-7.207-4.562-14.097-8.269-20.486h1.375c54.857 0 99.486-44.629 99.486-99.486zm-481.905 20.734c0-26.369 21.449-48.226 47.814-48.723l11.499-.217 2.775-11.161c9.722-39.097 44.69-66.403 85.036-66.403 4.589 0 9.212.361 13.742 1.074l11.786 1.854 4.458-11.066c16.027-39.788 54.099-65.496 96.991-65.496 26.565 0 51.884 9.975 71.292 28.088 19.315 18.026 31.015 42.407 32.943 68.651l.897 12.216 12.148 1.563c34.503 4.438 60.522 34.053 60.522 68.887 0 38.314-31.171 69.485-69.485 69.485h-32.586c-8.346-4.411-17.438-7.288-26.889-8.453-19.123-35.401-56.223-57.804-96.947-57.804-40.72 0-77.817 22.399-96.941 57.793-9.476 1.158-18.594 4.039-26.964 8.463h-53.34c-26.881.001-48.751-21.869-48.751-48.751zm414.54 165.988c0 20.921-17.021 37.942-37.942 37.942h-301.268c-20.921 0-37.942-17.021-37.942-37.942s17.021-37.942 37.942-37.942h14.093l1.073-13.84c1.929-24.877 22.95-44.38 47.904-44.497l10.134.001 3.924-9.012c12.75-29.282 41.616-48.203 73.54-48.203 31.923 0 60.789 18.92 73.54 48.201l3.937 9.011h9.829c25.053 0 46.193 19.545 48.128 44.497l1.073 13.84h14.093c20.922.001 37.942 17.022 37.942 37.944z"/></svg>